<svg width="24" height="24" viewBox="0 0 24 24" fill="none" xmlns="http://www.w3.org/2000/svg">
<g clip-path="url(#clip0_20_74)">
<path d="M4.24997 1.93444e-06H19.75C20.3082 -0.000537727 20.8611 0.111842 21.377 0.33071C21.8929 0.549578 22.3616 0.870637 22.7563 1.27551C23.1511 1.68039 23.4641 2.16113 23.6775 2.69023C23.8909 3.21933 24.0005 3.7864 24 4.35898V19.641C24.0005 20.2136 23.8909 20.7807 23.6775 21.3098C23.4641 21.8389 23.1511 22.3196 22.7563 22.7245C22.3616 23.1294 21.8929 23.4504 21.377 23.6693C20.8611 23.8882 20.3082 24.0005 19.75 24H4.24997C3.69171 24.0005 3.13882 23.8882 2.62294 23.6693C2.10707 23.4504 1.63835 23.1294 1.24359 22.7245C0.84884 22.3196 0.535808 21.8389 0.322412 21.3098C0.109016 20.7807 -0.000554801 20.2136 -2.86315e-05 19.641V4.35898C-0.000554801 3.7864 0.109016 3.21933 0.322412 2.69023C0.535808 2.16113 0.84884 1.68039 1.24359 1.27551C1.63835 0.870637 2.10707 0.549578 2.62294 0.33071C3.13882 0.111842 3.69171 -0.000537727 4.24997 1.93444e-06Z" fill="#330000"/>
<path d="M11.63 14.4H7.91L7.15 16.8103C7.14151 16.8542 7.11731 16.8933 7.08215 16.9199C7.047 16.9464 7.00343 16.9586 6.96 16.9539H5.08C4.97 16.9539 4.94 16.8923 4.97 16.7693L8.19 7.26156C8.22 7.159 8.25 7.04618 8.29 6.9231C8.33025 6.70329 8.35033 6.48009 8.35 6.25644C8.347 6.23075 8.35358 6.20485 8.36842 6.18393C8.38325 6.16301 8.40525 6.14861 8.43 6.14362H11.02C11.1 6.14362 11.14 6.17438 11.15 6.22567L14.8 16.7898C14.83 16.9026 14.8 16.9539 14.7 16.9539H12.61C12.5747 16.9574 12.5392 16.948 12.51 16.9273C12.4807 16.9067 12.4595 16.8762 12.45 16.8411L11.63 14.4ZM8.49 12.318H11.03C10.97 12.1026 10.89 11.8462 10.8 11.5795C10.71 11.3128 10.62 11.0052 10.53 10.6975C10.44 10.3898 10.34 10.0718 10.24 9.75387C10.14 9.43592 10.05 9.13849 9.97 8.84105C9.89 8.54362 9.82 8.28721 9.75 8.04105H9.73C9.64013 8.48807 9.52663 8.92975 9.39 9.36413C9.24 9.85644 9.09 10.3693 8.93 10.8821C8.79 11.4052 8.64 11.8872 8.49 12.318Z" fill="#FF9A00"/>
<path d="M16.98 7.89746C16.8158 7.90114 16.6526 7.8713 16.4998 7.80967C16.347 7.74804 16.2077 7.65586 16.09 7.53848C15.8609 7.28155 15.7388 6.94289 15.75 6.59489C15.7441 6.42534 15.7731 6.25641 15.8351 6.09913C15.8971 5.94184 15.9908 5.79974 16.11 5.68207C16.3503 5.44906 16.6693 5.32043 17 5.3231C17.39 5.3231 17.69 5.44618 17.91 5.68207C18.1315 5.93077 18.2499 6.25819 18.24 6.59489C18.2461 6.76818 18.2183 6.94097 18.1581 7.10304C18.098 7.26511 18.0068 7.41317 17.89 7.53848C17.7722 7.66158 17.63 7.75733 17.473 7.81925C17.316 7.88118 17.1479 7.90785 16.98 7.89746ZM15.86 16.8V8.90259C15.86 8.80002 15.9 8.759 15.99 8.759H17.97C18.06 8.759 18.1 8.81028 18.1 8.90259V16.8C18.1 16.9128 18.06 16.9641 17.97 16.9641H16.01C15.989 16.9659 15.9678 16.9628 15.9482 16.955C15.9285 16.9472 15.9108 16.935 15.8963 16.9192C15.8819 16.9034 15.8712 16.8845 15.8649 16.8639C15.8586 16.8433 15.8569 16.8214 15.86 16.8Z" fill="#FF9A00"/>
</g>
<defs>
<clipPath id="clip0_20_74">
<rect width="24" height="24" fill="white"/>
</clipPath>
</defs>
</svg>
