<svg width="24" height="24" viewBox="0 0 24 24" fill="none" xmlns="http://www.w3.org/2000/svg">
<path d="M0 8.05C0 5.20255 0 3.77882 0.562933 2.69513C1.03731 1.78191 1.78191 1.03731 2.69513 0.562933C3.77882 0 5.20255 0 8.05 0H15.95C18.7975 0 20.2212 0 21.3049 0.562933C22.2181 1.03731 22.9627 1.78191 23.4371 2.69513C24 3.77882 24 5.20255 24 8.05V15.95C24 18.7975 24 20.2212 23.4371 21.3049C22.9627 22.2181 22.2181 22.9627 21.3049 23.4371C20.2212 24 18.7975 24 15.95 24H8.05C5.20255 24 3.77882 24 2.69513 23.4371C1.78191 22.9627 1.03731 22.2181 0.562933 21.3049C0 20.2212 0 18.7975 0 15.95V8.05Z" fill="#EA4C89"/>
<path fill-rule="evenodd" clip-rule="evenodd" d="M12 3.5C7.30749 3.5 3.5 7.30749 3.5 12C3.5 16.6925 7.30749 20.5 12 20.5C16.6833 20.5 20.5 16.6925 20.5 12C20.5 7.30749 16.6833 3.5 12 3.5ZM17.6144 7.41811C18.6285 8.65347 19.237 10.2299 19.2554 11.9355C19.0157 11.8894 16.6188 11.4008 14.2034 11.705C14.1481 11.5851 14.1019 11.4561 14.0466 11.327C13.8991 10.9767 13.7332 10.6171 13.5672 10.276C16.2408 9.18818 17.4577 7.62094 17.6144 7.41811ZM12 4.7538C13.8438 4.7538 15.5309 5.44523 16.8124 6.57918C16.6833 6.76356 15.5862 8.2294 13.0049 9.1974C11.8156 7.01247 10.4973 5.22397 10.2945 4.9474C10.8384 4.81833 11.41 4.7538 12 4.7538ZM8.91161 5.43601C9.10521 5.69414 10.3959 7.49187 11.6036 9.63069C8.21095 10.5342 5.21476 10.5157 4.89208 10.5157C5.36225 8.26627 6.88341 6.39479 8.91161 5.43601ZM4.73536 12.0092C4.73536 11.9355 4.73536 11.8617 4.73536 11.788C5.04881 11.7972 8.57051 11.8433 12.1936 10.7554C12.4056 11.1611 12.5992 11.5759 12.7836 11.9908C12.6914 12.0184 12.59 12.0461 12.4978 12.0737C8.75489 13.2815 6.76356 16.5819 6.59762 16.8585C5.44523 15.577 4.73536 13.8715 4.73536 12.0092ZM12 19.2646C10.3221 19.2646 8.77332 18.6931 7.54717 17.7343C7.67625 17.4669 9.15131 14.6274 13.2446 13.1985C13.263 13.1893 13.2722 13.1893 13.2907 13.18C14.314 15.8259 14.7289 18.0477 14.8395 18.6838C13.9637 19.0618 13.0049 19.2646 12 19.2646ZM16.0472 18.0201C15.9734 17.5775 15.5862 15.4572 14.6367 12.8482C16.9138 12.4886 18.9051 13.0786 19.154 13.1616C18.8406 15.1806 17.679 16.923 16.0472 18.0201Z" fill="white"/>
</svg>
