<svg width="24" height="24" viewBox="0 0 24 24" fill="none" xmlns="http://www.w3.org/2000/svg">
<g clip-path="url(#clip0_17_189)">
<path d="M0 8.05C0 5.20255 0 3.77882 0.562933 2.69513C1.03731 1.78191 1.78191 1.03731 2.69513 0.562933C3.77882 0 5.20255 0 8.05 0H15.95C18.7975 0 20.2212 0 21.3049 0.562933C22.2181 1.03731 22.9627 1.78191 23.4371 2.69513C24 3.77882 24 5.20255 24 8.05V15.95C24 18.7975 24 20.2212 23.4371 21.3049C22.9627 22.2181 22.2181 22.9627 21.3049 23.4371C20.2212 24 18.7975 24 15.95 24H8.05C5.20255 24 3.77882 24 2.69513 23.4371C1.78191 22.9627 1.03731 22.2181 0.562933 21.3049C0 20.2212 0 18.7975 0 15.95V8.05Z" fill="black"/>
<path d="M12 12C12 10.4812 13.2312 9.25 14.75 9.25C16.2688 9.25 17.5 10.4812 17.5 12C17.5 13.5188 16.2688 14.75 14.75 14.75C13.2312 14.75 12 13.5188 12 12Z" fill="#1ABCFE"/>
<path d="M6.5 17.4999C6.5 15.9812 7.73122 14.7499 9.25 14.7499H12V17.4999C12 19.0187 10.7688 20.2499 9.25 20.2499C7.73122 20.2499 6.5 19.0187 6.5 17.4999Z" fill="#0ACF83"/>
<path d="M12 3.75V9.24998H14.75C16.2688 9.24998 17.5 8.01878 17.5 6.5C17.5 4.98122 16.2688 3.75 14.75 3.75H12Z" fill="#FF7262"/>
<path d="M6.5 6.5C6.5 8.01878 7.73122 9.24999 9.25 9.24999H12V3.75H9.25C7.73122 3.75 6.5 4.98122 6.5 6.5Z" fill="#F24E1E"/>
<path d="M6.5 12C6.5 13.5188 7.73122 14.75 9.25 14.75H12V9.25H9.25C7.73122 9.25 6.5 10.4812 6.5 12Z" fill="#A259FF"/>
</g>
<defs>
<clipPath id="clip0_17_189">
<rect width="24" height="24" fill="white"/>
</clipPath>
</defs>
</svg>
