<svg width="24" height="24" viewBox="0 0 24 24" fill="none" xmlns="http://www.w3.org/2000/svg">
<path d="M12 12C12 10.3432 13.3431 9 15 9C16.6568 9 18 10.3432 18 12C18 13.6569 16.6568 15 15 15C13.3431 15 12 13.6569 12 12Z" fill="#1ABCFE"/>
<path d="M6.00003 17.9999C6.00003 16.3431 7.34318 14.9999 9.00003 14.9999H12V17.9999C12 19.6568 10.6569 20.9999 9.00003 20.9999C7.34318 20.9999 6.00003 19.6568 6.00003 17.9999Z" fill="#0ACF83"/>
<path d="M12 3V8.99998H15C16.6569 8.99998 18 7.65685 18 6C18 4.34315 16.6569 3 15 3H12Z" fill="#FF7262"/>
<path d="M6.00003 6C6.00003 7.65685 7.34318 8.99999 9.00003 8.99999H12V3H9.00003C7.34318 3 6.00003 4.34315 6.00003 6Z" fill="#F24E1E"/>
<path d="M6.00003 12C6.00003 13.6569 7.34318 15 9.00003 15H12V9H9.00003C7.34318 9 6.00003 10.3432 6.00003 12Z" fill="#A259FF"/>
</svg>
