<svg width="28" height="24" viewBox="0 0 28 24" fill="none" xmlns="http://www.w3.org/2000/svg">
<path d="M1.90861 22H6.36203V11.1845L0 6.41302V20.0914C0 21.1475 0.855693 22 1.90861 22Z" fill="#4285F4"/>
<path d="M21.6309 22H26.0843C27.1404 22 27.9929 21.1443 27.9929 20.0914V6.41302L21.6309 11.1845" fill="#34A853"/>
<path d="M21.6309 2.91402V11.1847L27.9929 6.41314V3.86833C27.9929 1.50801 25.2986 0.162445 23.4123 1.578" fill="#FBBC04"/>
<path d="M6.36206 11.1845V2.91391L13.9965 8.63974L21.6309 2.91391V11.1845L13.9965 16.9104" fill="#EA4335"/>
<path d="M0 3.86833V6.41314L6.36203 11.1847V2.91402L4.58066 1.578C2.69114 0.162445 0 1.50801 0 3.86833Z" fill="#C5221F"/>
</svg>
