<svg width="24" height="24" viewBox="0 0 24 24" fill="none" xmlns="http://www.w3.org/2000/svg">
<path d="M0 17.1212H0.795375V13.9811L2.0265 16.7182C2.17144 17.0501 2.37 17.1665 2.76038 17.1665C3.15075 17.1665 3.34125 17.0501 3.48619 16.7182L4.71731 13.9811V17.121H5.51269V13.9864C5.51269 13.6802 5.39044 13.5322 5.13769 13.4561C4.53337 13.2679 4.12838 13.4304 3.94462 13.8384L2.73694 16.5403L1.56731 13.8384C1.39163 13.4304 0.978563 13.2679 0.375 13.4561C0.12225 13.5322 0 13.6802 0 13.9864L0 17.1212ZM6.17438 14.565H6.969V16.295C6.96169 16.3888 6.999 16.6093 7.43475 16.6166H9.16406V14.5562H9.96094C9.96469 14.5562 9.95944 17.3657 9.95944 17.3775C9.96375 18.0703 9.10031 18.2205 8.70187 18.2323H6.19125V17.6975L8.70638 17.6968C9.21825 17.6434 9.1575 17.3884 9.1575 17.3034V17.0947H7.46775C6.68119 17.0874 6.18094 16.7439 6.17438 16.349C6.17362 16.3132 6.19125 14.5826 6.17438 14.565Z" fill="#00618A"/>
<path d="M10.5733 17.1212H12.8599C13.1272 17.1212 13.3873 17.0647 13.5937 16.9682C13.938 16.8107 14.1056 16.5962 14.1056 16.3157V15.7348C14.1056 15.5055 13.9151 15.291 13.5401 15.1489C13.3416 15.072 13.0963 15.0317 12.8597 15.0317H11.8957C11.5749 15.0317 11.4219 14.9349 11.3839 14.7212C11.3766 14.6955 11.3766 14.6751 11.3766 14.6494V14.2875C11.3766 14.2671 11.3766 14.2464 11.3839 14.2209C11.4219 14.0584 11.5061 14.0122 11.7889 13.9866L11.8657 13.9815H14.1362V13.452H11.904C11.5832 13.452 11.4148 13.4724 11.2616 13.518C10.7878 13.6659 10.5812 13.9003 10.5812 14.3083V14.772C10.5812 15.1286 10.9862 15.4348 11.6666 15.5059L11.8959 15.5162H12.7221C12.7528 15.5162 12.7828 15.5162 12.8062 15.5212C13.0582 15.5417 13.1651 15.5878 13.242 15.6795C13.2816 15.7161 13.3042 15.7682 13.3027 15.8216V16.2861C13.3027 16.3417 13.2647 16.4136 13.1886 16.4743C13.1197 16.5358 13.0048 16.5761 12.8524 16.5864L12.7682 16.5915H10.5733V17.1212ZM19.0665 16.1983C19.0665 16.7439 19.4722 17.0494 20.2896 17.1109L20.5196 17.1212H22.5917V16.5909H20.5042C20.0377 16.5909 19.8619 16.4737 19.8619 16.1932V13.4509H19.0672V16.1981L19.0665 16.1983ZM14.6134 16.2261V14.3357C14.6134 13.8559 14.9511 13.5645 15.6174 13.4728C15.6885 13.4625 15.7603 13.4574 15.8321 13.4574H17.3409C17.4178 13.4574 17.4866 13.4625 17.5637 13.4728C18.2302 13.5643 18.5672 13.8559 18.5672 14.3357V16.2261C18.5672 16.6157 18.4243 16.8238 18.0941 16.9599L18.8779 17.6668H17.9542L17.3207 17.0947L16.6828 17.1351H15.8325C15.6745 17.1346 15.5172 17.1124 15.3652 17.0691C14.8592 16.9314 14.6137 16.6656 14.6137 16.2261H14.6134ZM15.4717 16.1799C15.4717 16.2056 15.4791 16.2311 15.4871 16.2621C15.5332 16.4818 15.7399 16.6041 16.0539 16.6041H16.7762L16.1126 16.005H17.0362L17.6149 16.5279C17.7217 16.4707 17.7913 16.3843 17.8162 16.2724C17.8236 16.2467 17.8236 16.2212 17.8236 16.1955V14.3827C17.8236 14.3623 17.8236 14.3366 17.8162 14.3109C17.7701 14.1066 17.5635 13.9894 17.2567 13.9894H16.0541C15.7018 13.9894 15.4719 14.1424 15.4719 14.3827L15.4717 16.1799Z" fill="#E48E00"/>
<path d="M23.2911 12.5713C22.8026 12.5582 22.4289 12.6035 22.1096 12.7383C22.0189 12.7764 21.8737 12.7772 21.8591 12.8908C21.909 12.9435 21.9171 13.0218 21.9566 13.0856C22.0327 13.2093 22.1617 13.3742 22.2767 13.4606L22.6656 13.7388C22.9042 13.8845 23.1716 13.9682 23.4024 14.1138C23.538 14.2003 23.6726 14.3087 23.8052 14.4062C23.8704 14.4538 23.9143 14.5292 24 14.5592V14.5453C23.9554 14.4881 23.9436 14.4097 23.9025 14.3505L23.7216 14.1695C23.5451 13.9352 23.3209 13.7293 23.0822 13.5579C22.8917 13.4216 22.467 13.2371 22.3871 13.0158L22.3732 13.002C22.5081 12.9873 22.6663 12.9382 22.7901 12.9052C22.9995 12.8488 23.1862 12.8634 23.4017 12.8077L23.694 12.7235V12.6686C23.5849 12.5565 23.5072 12.4085 23.3878 12.3067C23.0773 12.0423 22.7374 11.7772 22.3873 11.556C22.1932 11.4337 21.9538 11.3546 21.7479 11.2505C21.6791 11.2155 21.5574 11.1978 21.5113 11.1392C21.4037 11.0015 21.345 10.8272 21.2616 10.6667L20.7613 9.61047C20.6559 9.36954 20.5869 9.13141 20.4551 8.91541C19.8246 7.8776 19.1449 7.25135 18.0922 6.63616C17.8689 6.5051 17.5986 6.45372 17.3145 6.38641L16.8553 6.35866C16.7623 6.3191 16.6656 6.20491 16.5778 6.14997C16.2292 5.92947 15.3349 5.4506 15.0763 6.08041C14.9137 6.4781 15.3202 6.86622 15.4659 7.06778C15.5677 7.20916 15.6988 7.36741 15.7714 7.52622C15.8197 7.63028 15.8278 7.73491 15.8689 7.84553C15.9699 8.11797 16.0579 8.41385 16.1889 8.66585C16.2549 8.79335 16.3273 8.92741 16.4109 9.04085C16.4621 9.11041 16.5501 9.14191 16.5639 9.24954C16.4782 9.36972 16.4732 9.55572 16.4248 9.70797C16.2073 10.3927 16.2892 11.2438 16.6057 11.7513C16.7025 11.9066 16.9309 12.2405 17.2451 12.1125C17.5198 12.0003 17.4583 11.654 17.5367 11.3478C17.5551 11.279 17.544 11.2277 17.5785 11.1815V11.1954L17.829 11.6957C18.0142 11.9938 18.3424 12.305 18.6208 12.5152C18.7657 12.6243 18.8794 12.8133 19.0661 12.8771V12.8625H19.0522C19.0157 12.8068 18.9592 12.7833 18.9131 12.738C18.804 12.6311 18.6831 12.4985 18.5938 12.3761C18.3403 12.0326 18.1162 11.6561 17.9126 11.2642C17.8151 11.0775 17.7302 10.8708 17.6482 10.6805C17.6167 10.6072 17.6175 10.496 17.5515 10.4585C17.4615 10.5977 17.3289 10.7105 17.2592 10.8753C17.1478 11.1382 17.1339 11.4598 17.0921 11.7924L17.0644 11.8063C16.8711 11.7594 16.8028 11.5603 16.7312 11.3895C16.5487 10.9573 16.5152 10.2607 16.6755 9.76347C16.7166 9.63466 16.9041 9.22872 16.8279 9.11022C16.7921 8.99154 16.6727 8.92272 16.6059 8.83197C16.5187 8.71028 16.4441 8.57998 16.3834 8.4431C16.2347 8.10541 16.1651 7.7276 16.0084 7.38691C15.9337 7.2236 15.807 7.05878 15.7029 6.91385C15.5872 6.75353 15.4582 6.6356 15.369 6.44135C15.3375 6.37253 15.2944 6.26191 15.3412 6.19085C15.3559 6.14322 15.3778 6.12353 15.4247 6.10816C15.5053 6.04591 15.7301 6.1286 15.8136 6.1631C16.0369 6.2561 16.2231 6.34403 16.4119 6.46928C16.5019 6.52928 16.5936 6.64572 16.7034 6.67797H16.8287C17.0242 6.7226 17.2432 6.6911 17.4264 6.74679C17.7495 6.84485 18.0396 6.99803 18.3017 7.16435C19.1029 7.66966 19.7578 8.38966 20.2059 9.24879C20.2785 9.38716 20.3092 9.51897 20.373 9.6656C20.5012 9.96147 20.6623 10.2662 20.7898 10.5555C20.9173 10.8448 21.0411 11.1356 21.2205 11.3758C21.315 11.5018 21.6804 11.5691 21.846 11.6394C21.9624 11.6885 22.1529 11.7397 22.2628 11.8065C22.4737 11.9332 22.6774 12.084 22.8752 12.2233C22.9732 12.2936 23.2766 12.446 23.292 12.5711L23.2911 12.5713ZM17.0779 7.27591C16.9938 7.27455 16.9099 7.28388 16.8281 7.30366V7.31753H16.842C16.8904 7.41785 16.9761 7.48235 17.0361 7.56803L17.1752 7.8596L17.1891 7.84647C17.2755 7.78572 17.3143 7.68822 17.3143 7.54028C17.2792 7.50372 17.2747 7.45835 17.2447 7.41503C17.2052 7.3571 17.1285 7.32503 17.0779 7.27591Z" fill="#00618A"/>
</svg>
