<svg width="24" height="24" viewBox="0 0 24 24" fill="none" xmlns="http://www.w3.org/2000/svg">
<path d="M23.9999 20.9967C24.0097 22.6445 22.5387 23.9862 20.7156 23.9951C20.5801 23.9961 20.4435 23.9892 20.3091 23.9744C18.6172 23.7483 17.3778 22.4184 17.4193 20.8743V3.12064C17.3789 1.57453 18.6216 0.244635 20.3145 0.0205176C22.1255 -0.171019 23.766 0.999919 23.9781 2.63587C23.9934 2.75633 24.001 2.87678 23.9999 2.99821V20.9967Z" fill="#F9AB00"/>
<path d="M3.29085 18.0545C5.10842 18.0545 6.58171 19.3853 6.58171 21.0272C6.58171 22.6691 5.10842 24 3.29085 24C1.47329 24 0 22.6691 0 21.0272C0 19.3853 1.47329 18.0545 3.29085 18.0545ZM11.9492 9.04536C10.1228 9.13619 8.70639 10.5194 8.74901 12.1712V20.1554C8.74901 22.3226 9.8048 23.6376 11.3513 23.918C13.1361 24.2448 14.875 23.2032 15.2367 21.591C15.2815 21.3935 15.3034 21.1931 15.3023 20.9917V12.0329C15.3056 10.3851 13.8301 9.04733 12.006 9.04437C11.9874 9.04437 11.9677 9.04437 11.9492 9.04536Z" fill="#E37400"/>
</svg>
