<svg width="24" height="24" viewBox="0 0 24 24" fill="none" xmlns="http://www.w3.org/2000/svg">
<path d="M0 8.05C0 5.20255 0 3.77882 0.562933 2.69513C1.03731 1.78191 1.78191 1.03731 2.69513 0.562933C3.77882 0 5.20255 0 8.05 0H15.95C18.7975 0 20.2212 0 21.3049 0.562933C22.2181 1.03731 22.9627 1.78191 23.4371 2.69513C24 3.77882 24 5.20255 24 8.05V15.95C24 18.7975 24 20.2212 23.4371 21.3049C22.9627 22.2181 22.2181 22.9627 21.3049 23.4371C20.2212 24 18.7975 24 15.95 24H8.05C5.20255 24 3.77882 24 2.69513 23.4371C1.78191 22.9627 1.03731 22.2181 0.562933 21.3049C0 20.2212 0 18.7975 0 15.95V8.05Z" fill="#1EA1F2"/>
<path fill-rule="evenodd" clip-rule="evenodd" d="M18.6615 9.07611C18.6673 9.22601 18.6692 9.37585 18.6692 9.52575C18.6692 14.0705 15.4722 19.3171 9.626 19.3171C7.83015 19.3171 6.16026 18.7448 4.7533 17.7704C5.002 17.7977 5.25459 17.8181 5.51105 17.8181C7.00006 17.8181 8.37149 17.2661 9.45934 16.3395C8.06852 16.319 6.89412 15.3174 6.48908 13.9547C6.68352 13.9955 6.88377 14.016 7.08855 14.016C7.3773 14.016 7.65766 13.9752 7.9264 13.8934C6.47098 13.58 5.37474 12.1901 5.37474 10.5207C5.37474 10.5003 5.37474 10.4934 5.37474 10.4798C5.80368 10.7319 6.29463 10.8885 6.81594 10.909C5.96194 10.2889 5.40057 9.23281 5.40057 8.04041C5.40057 7.41355 5.5569 6.82073 5.83209 6.3097C7.39926 8.39469 9.74229 9.76427 12.3837 9.90736C12.3295 9.65525 12.3017 9.38958 12.3017 9.12385C12.3017 7.22282 13.7248 5.68289 15.4806 5.68289C16.3947 5.68289 17.2203 6.09859 17.7997 6.76633C18.5252 6.61643 19.2048 6.33027 19.8197 5.93508C19.5814 6.7391 19.0781 7.41351 18.4205 7.83596C19.0639 7.7542 19.6776 7.57037 20.2467 7.29782C19.8197 7.98601 19.2823 8.59233 18.6615 9.07611Z" fill="white"/>
</svg>
